<?xml version="1.0" encoding="UTF-8"?>
<svg id="Layer_1" data-name="Layer 1" xmlns="http://www.w3.org/2000/svg" viewBox="0 0 85.63 24.97">
  <defs>
    <style>
      .cls-1 {
        fill: #454347;
      }
    </style>
  </defs>
  <g>
    <rect class="cls-1" x="26.12" y="6.35" width="1.53" height="1.54"/>
    <rect class="cls-1" x="27.66" y="7.89" width="1.56" height="3.08"/>
    <rect class="cls-1" x="23.03" y="9.44" width="1.53" height="1.53"/>
    <rect class="cls-1" x="24.56" y=".17" width="3.1" height="1.52"/>
    <rect class="cls-1" x="23.03" y="1.69" width="1.53" height="3.09"/>
    <rect class="cls-1" x="24.56" y="10.98" width="3.1" height="1.54"/>
    <rect class="cls-1" x="24.56" y="4.79" width="1.56" height="1.56"/>
    <rect class="cls-1" x="27.66" y="1.69" width="1.56" height="1.56"/>
    <rect class="cls-1" x="9.21" y="10.98" width="3.09" height="1.54"/>
    <rect class="cls-1" x="9.21" y=".17" width="3.09" height="1.52"/>
    <rect class="cls-1" x="12.3" y="1.69" width="1.56" height="9.28"/>
    <rect class="cls-1" x="7.68" y="1.69" width="1.53" height="9.28"/>
    <rect class="cls-1" x="15.35" y=".17" width="1.54" height="10.8"/>
    <rect class="cls-1" x="16.89" y="10.98" width="3.09" height="1.54"/>
    <rect class="cls-1" x="19.98" y=".17" width="1.57" height="10.8"/>
    <rect class="cls-1" x="32.23" y=".18" width="3.08" height="1.53"/>
    <rect class="cls-1" x="32.23" y="10.96" width="3.08" height="1.56"/>
    <polygon class="cls-1" points="35.31 4.79 32.23 4.79 32.23 1.71 30.7 1.71 30.7 10.97 32.23 10.97 32.23 6.31 36.87 6.31 36.87 1.71 35.31 1.71 35.31 4.79"/>
    <rect class="cls-1" x="35.31" y="9.44" width="1.56" height="1.53"/>
    <polygon class="cls-1" points="4.63 5.57 1.54 5.57 1.54 .17 0 .17 0 10.97 1.54 10.97 1.54 7.13 4.63 7.13 4.63 12.52 6.19 12.52 6.19 .17 4.63 .17 4.63 5.57"/>
    <polygon class="cls-1" points="71.47 .17 69.41 .17 67.09 4.82 67.09 .18 64.97 .17 64.97 12.52 67.09 12.52 67.09 8.65 67.86 7.12 69.66 12.52 71.77 12.52 69.18 4.77 71.47 .17"/>
    <polygon class="cls-1" points="79.42 .17 79.42 2.02 81.47 2.02 81.47 12.51 83.59 12.51 83.59 2.02 85.63 2.02 85.63 .17 79.42 .17"/>
    <path class="cls-1" d="m42.35,9.6c0,.8-.25,1.24-1.02,1.24-.85,0-1.12-.44-1.12-1.37V3.22c0-.92.27-1.37,1.12-1.37.55,0,1.02.44,1.02,1.48v.96h0s2.11-1.11,2.11-1.11c-.07-1.75-1.1-3.19-3.14-3.19-2.22,0-3.25,1.43-3.25,3.17v6.36c0,1.74,1.02,3.16,3.25,3.16s3.15-1.42,3.15-3.16v-1.42h-2.12v1.49Z"/>
    <path class="cls-1" d="m61.5,9.6c0,.8-.26,1.24-1.03,1.24-.85,0-1.12-.44-1.12-1.37V3.22c0-.92.27-1.37,1.12-1.37.55,0,1.03.44,1.03,1.48v.95l2.11-1.1c-.08-1.75-1.1-3.19-3.14-3.19-2.22,0-3.24,1.43-3.24,3.17v6.36c0,1.74,1.02,3.16,3.24,3.16s3.15-1.42,3.15-3.16v-1.42h-2.12v1.49Z"/>
    <path class="cls-1" d="m52.23,3.81c0-2.63-1.21-3.64-3.58-3.64h-2.98v12.35h2.12v-5.06c.38,0,.82-.02,1.09-.05l1.5,5.11h2.16l-1.79-5.59c.7-.33,1.48-1.13,1.48-3.11m-3.69,1.9h-.75V1.91h.75c1.14,0,1.57.43,1.57,1.9s-.43,1.9-1.57,1.9"/>
    <rect class="cls-1" x="53.74" y=".17" width="2.12" height="12.35"/>
    <polygon class="cls-1" points="74.84 7.26 77.58 7.26 77.58 5.41 74.84 5.41 74.84 2.02 78.4 2.02 78.4 .17 72.73 .17 72.73 12.52 78.64 12.52 78.64 10.67 74.84 10.67 74.84 7.26"/>
  </g>
  <g>
    <path class="cls-1" d="m14.5,24.88h-1.73v-4.98h1.73c1.57,0,2.65,1.07,2.65,2.49s-1.08,2.49-2.65,2.49m0-4.46h-1.17v3.94h1.17c1.26,0,2.06-.86,2.06-1.96s-.81-1.98-2.06-1.98"/>
    <rect class="cls-1" x="18.58" y="19.9" width=".56" height="4.98"/>
    <path class="cls-1" d="m23.1,24.97c-1.57,0-2.53-1.14-2.53-2.57s1.01-2.58,2.5-2.58c.84,0,1.36.24,1.86.66l-.36.43c-.38-.34-.81-.57-1.51-.57-1.1,0-1.89.94-1.89,2.05,0,1.19.76,2.08,1.97,2.08.57,0,1.09-.22,1.44-.5v-1.24h-1.51v-.51h2.06v1.99c-.46.41-1.16.76-2,.76"/>
    <rect class="cls-1" x="26.61" y="19.9" width=".56" height="4.98"/>
    <polygon class="cls-1" points="30.7 24.88 30.13 24.88 30.13 20.42 28.46 20.42 28.46 19.9 32.37 19.9 32.37 20.42 30.7 20.42 30.7 24.88"/>
    <path class="cls-1" d="m37.61,24.88h-.61l-.58-1.32h-2.71l-.59,1.32h-.58l2.27-5.02h.53l2.27,5.02Zm-2.54-4.36l-1.14,2.54h2.27l-1.13-2.54Z"/>
    <polygon class="cls-1" points="38.79 19.9 39.35 19.9 39.35 24.36 42.16 24.36 42.16 24.88 38.79 24.88 38.79 19.9"/>
    <path class="cls-1" d="m47.44,24.88h-1.73v-4.98h1.73c1.57,0,2.65,1.07,2.65,2.49s-1.08,2.49-2.65,2.49m0-4.46h-1.17v3.94h1.17c1.26,0,2.06-.86,2.06-1.96s-.81-1.98-2.06-1.98"/>
    <rect class="cls-1" x="51.51" y="19.9" width=".56" height="4.98"/>
    <path class="cls-1" d="m57.15,24.88l-1.44-1.93h-1.42v1.93h-.56v-4.98h2.14c1.09,0,1.8.58,1.8,1.48,0,.83-.57,1.32-1.35,1.46l1.53,2.04h-.69Zm-1.33-4.46h-1.54v2.02h1.53c.75,0,1.28-.39,1.28-1.03s-.47-.99-1.27-.99"/>
    <polygon class="cls-1" points="62.66 20.41 59.62 20.41 59.62 22.11 62.34 22.11 62.34 22.63 59.62 22.63 59.62 24.37 62.69 24.37 62.69 24.88 59.06 24.88 59.06 19.9 62.66 19.9 62.66 20.41"/>
    <path class="cls-1" d="m66.29,24.97c-1.44,0-2.49-1.13-2.49-2.57s1.05-2.58,2.52-2.58c.9,0,1.44.32,1.94.79l-.38.41c-.42-.39-.89-.68-1.57-.68-1.1,0-1.92.89-1.92,2.05s.83,2.06,1.92,2.06c.69,0,1.14-.26,1.61-.71l.37.36c-.52.52-1.09.87-1.99.87"/>
    <polygon class="cls-1" points="71.35 24.88 70.78 24.88 70.78 20.42 69.11 20.42 69.11 19.9 73.02 19.9 73.02 20.42 71.35 20.42 71.35 24.88"/>
  </g>
</svg>