<!--
  Sprite de ícones da demo notavel (Lab de Demos, leandrofurtado.com.br).
  Ícones: Lucide (https://github.com/lucide-icons/lucide). Licença ISC — Copyright (c) 2026 Lucide Icons and Contributors.
  34 símbolos, um <symbol> por ícone, id em PT-BR.
  Uso: <svg class="icone"><use href="/static/lab/icones/notavel.svg#i-nome"/></svg>
-->
<svg xmlns="http://www.w3.org/2000/svg" style="display:none">
<symbol id="i-alerta" viewBox="0 0 24 24" fill="none" stroke="currentColor" stroke-width="2" stroke-linecap="round" stroke-linejoin="round"><path d="m21.73 18-8-14a2 2 0 0 0-3.48 0l-8 14A2 2 0 0 0 4 21h16a2 2 0 0 0 1.73-3" /><path d="M12 9v4" /><path d="M12 17h.01" /></symbol>
<symbol id="i-baixar" viewBox="0 0 24 24" fill="none" stroke="currentColor" stroke-width="2" stroke-linecap="round" stroke-linejoin="round"><path d="M6 22a2 2 0 0 1-2-2V4a2 2 0 0 1 2-2h8a2.4 2.4 0 0 1 1.704.706l3.588 3.588A2.4 2.4 0 0 1 20 8v12a2 2 0 0 1-2 2z" /><path d="M14 2v5a1 1 0 0 0 1 1h5" /><path d="M12 18v-6" /><path d="m9 15 3 3 3-3" /></symbol>
<symbol id="i-balanca" viewBox="0 0 24 24" fill="none" stroke="currentColor" stroke-width="2" stroke-linecap="round" stroke-linejoin="round"><path d="M12 3v18" /><path d="m19 8 3 8a5 5 0 0 1-6 0zV7" /><path d="M3 7h1a17 17 0 0 0 8-2 17 17 0 0 0 8 2h1" /><path d="m5 8 3 8a5 5 0 0 1-6 0zV7" /><path d="M7 21h10" /></symbol>
<symbol id="i-banco" viewBox="0 0 24 24" fill="none" stroke="currentColor" stroke-width="2" stroke-linecap="round" stroke-linejoin="round"><path d="M10 18v-7" /><path d="M11.119 2.205a2 2 0 0 1 1.762 0l7.84 3.846A.5.5 0 0 1 20.5 7h-17a.5.5 0 0 1-.22-.949z" /><path d="M14 18v-7" /><path d="M18 18v-7" /><path d="M3 22h18" /><path d="M6 18v-7" /></symbol>
<symbol id="i-calculadora" viewBox="0 0 24 24" fill="none" stroke="currentColor" stroke-width="2" stroke-linecap="round" stroke-linejoin="round"><rect width="16" height="20" x="4" y="2" rx="2" /><line x1="8" x2="16" y1="6" y2="6" /><line x1="16" x2="16" y1="14" y2="18" /><path d="M16 10h.01" /><path d="M12 10h.01" /><path d="M8 10h.01" /><path d="M12 14h.01" /><path d="M8 14h.01" /><path d="M12 18h.01" /><path d="M8 18h.01" /></symbol>
<symbol id="i-calendario" viewBox="0 0 24 24" fill="none" stroke="currentColor" stroke-width="2" stroke-linecap="round" stroke-linejoin="round"><path d="M8 2v3" /><path d="M16 2v3" /><rect x="3" y="3" width="18" height="18" rx="2" /><path d="M3 9h18" /></symbol>
<symbol id="i-cancelar" viewBox="0 0 24 24" fill="none" stroke="currentColor" stroke-width="2" stroke-linecap="round" stroke-linejoin="round"><circle cx="12" cy="12" r="10" /><path d="M4.929 4.929 19.07 19.071" /></symbol>
<symbol id="i-cartao" viewBox="0 0 24 24" fill="none" stroke="currentColor" stroke-width="2" stroke-linecap="round" stroke-linejoin="round"><rect width="20" height="14" x="2" y="5" rx="2" /><line x1="2" x2="22" y1="10" y2="10" /></symbol>
<symbol id="i-carteira" viewBox="0 0 24 24" fill="none" stroke="currentColor" stroke-width="2" stroke-linecap="round" stroke-linejoin="round"><path d="M19 7V4a1 1 0 0 0-1-1H5a2 2 0 0 0 0 4h15a1 1 0 0 1 1 1v4h-3a2 2 0 0 0 0 4h3a1 1 0 0 0 1-1v-2a1 1 0 0 0-1-1" /><path d="M3 5v14a2 2 0 0 0 2 2h15a1 1 0 0 0 1-1v-4" /></symbol>
<symbol id="i-check" viewBox="0 0 24 24" fill="none" stroke="currentColor" stroke-width="2" stroke-linecap="round" stroke-linejoin="round"><circle cx="12" cy="12" r="10" /><path d="m9 12 2 2 4-4" /></symbol>
<symbol id="i-cifrao" viewBox="0 0 24 24" fill="none" stroke="currentColor" stroke-width="2" stroke-linecap="round" stroke-linejoin="round"><rect width="20" height="12" x="2" y="6" rx="2" /><circle cx="12" cy="12" r="2" /><path d="M6 12h.01M18 12h.01" /></symbol>
<symbol id="i-config" viewBox="0 0 24 24" fill="none" stroke="currentColor" stroke-width="2" stroke-linecap="round" stroke-linejoin="round"><path d="M9.671 4.136a2.34 2.34 0 0 1 4.659 0 2.34 2.34 0 0 0 3.319 1.915 2.34 2.34 0 0 1 2.33 4.033 2.34 2.34 0 0 0 0 3.831 2.34 2.34 0 0 1-2.33 4.033 2.34 2.34 0 0 0-3.319 1.915 2.34 2.34 0 0 1-4.659 0 2.34 2.34 0 0 0-3.32-1.915 2.34 2.34 0 0 1-2.33-4.033 2.34 2.34 0 0 0 0-3.831A2.34 2.34 0 0 1 6.35 6.051a2.34 2.34 0 0 0 3.319-1.915" /><circle cx="12" cy="12" r="3" /></symbol>
<symbol id="i-email" viewBox="0 0 24 24" fill="none" stroke="currentColor" stroke-width="2" stroke-linecap="round" stroke-linejoin="round"><path d="m22 7-8.991 5.727a2 2 0 0 1-2.009 0L2 7" /><rect x="2" y="4" width="20" height="16" rx="2" /></symbol>
<symbol id="i-empresa" viewBox="0 0 24 24" fill="none" stroke="currentColor" stroke-width="2" stroke-linecap="round" stroke-linejoin="round"><path d="M10 12h4" /><path d="M10 8h4" /><path d="M14 21v-3a2 2 0 0 0-4 0v3" /><path d="M6 10H4a2 2 0 0 0-2 2v7a2 2 0 0 0 2 2h16a2 2 0 0 0 2-2V9a2 2 0 0 0-2-2h-2" /><path d="M6 21V5a2 2 0 0 1 2-2h8a2 2 0 0 1 2 2v16" /></symbol>
<symbol id="i-enviar" viewBox="0 0 24 24" fill="none" stroke="currentColor" stroke-width="2" stroke-linecap="round" stroke-linejoin="round"><path d="M14.536 21.686a.5.5 0 0 0 .937-.024l6.5-19a.496.496 0 0 0-.635-.635l-19 6.5a.5.5 0 0 0-.024.937l7.93 3.18a2 2 0 0 1 1.112 1.11z" /><path d="m21.854 2.147-10.94 10.939" /></symbol>
<symbol id="i-grafico-barras" viewBox="0 0 24 24" fill="none" stroke="currentColor" stroke-width="2" stroke-linecap="round" stroke-linejoin="round"><path d="M3 3v16a2 2 0 0 0 2 2h16" /><path d="M18 17V9" /><path d="M13 17V5" /><path d="M8 17v-3" /></symbol>
<symbol id="i-grafico" viewBox="0 0 24 24" fill="none" stroke="currentColor" stroke-width="2" stroke-linecap="round" stroke-linejoin="round"><path d="M16 7h6v6" /><path d="m22 7-8.5 8.5-5-5L2 17" /></symbol>
<symbol id="i-ia" viewBox="0 0 24 24" fill="none" stroke="currentColor" stroke-width="2" stroke-linecap="round" stroke-linejoin="round"><path d="M12 8V4H8" /><rect width="16" height="12" x="4" y="8" rx="2" /><path d="M2 14h2" /><path d="M20 14h2" /><path d="M15 13v2" /><path d="M9 13v2" /></symbol>
<symbol id="i-lupa" viewBox="0 0 24 24" fill="none" stroke="currentColor" stroke-width="2" stroke-linecap="round" stroke-linejoin="round"><path d="m21 21-4.34-4.34" /><circle cx="11" cy="11" r="8" /></symbol>
<symbol id="i-moeda" viewBox="0 0 24 24" fill="none" stroke="currentColor" stroke-width="2" stroke-linecap="round" stroke-linejoin="round"><path d="M13.744 17.736a6 6 0 1 1-7.48-7.48" /><path d="M15 6h1v4" /><path d="m6.134 14.768.866-.5 2 3.464" /><circle cx="16" cy="8" r="6" /></symbol>
<symbol id="i-nota-check" viewBox="0 0 24 24" fill="none" stroke="currentColor" stroke-width="2" stroke-linecap="round" stroke-linejoin="round"><path d="M6 22a2 2 0 0 1-2-2V4a2 2 0 0 1 2-2h8a2.4 2.4 0 0 1 1.704.706l3.588 3.588A2.4 2.4 0 0 1 20 8v12a2 2 0 0 1-2 2z" /><path d="M14 2v5a1 1 0 0 0 1 1h5" /><path d="m9 15 2 2 4-4" /></symbol>
<symbol id="i-nota-mais" viewBox="0 0 24 24" fill="none" stroke="currentColor" stroke-width="2" stroke-linecap="round" stroke-linejoin="round"><path d="M6 22a2 2 0 0 1-2-2V4a2 2 0 0 1 2-2h8a2.4 2.4 0 0 1 1.704.706l3.588 3.588A2.4 2.4 0 0 1 20 8v12a2 2 0 0 1-2 2z" /><path d="M14 2v5a1 1 0 0 0 1 1h5" /><path d="M9 15h6" /><path d="M12 18v-6" /></symbol>
<symbol id="i-nota" viewBox="0 0 24 24" fill="none" stroke="currentColor" stroke-width="2" stroke-linecap="round" stroke-linejoin="round"><path d="M6 22a2 2 0 0 1-2-2V4a2 2 0 0 1 2-2h8a2.4 2.4 0 0 1 1.704.706l3.588 3.588A2.4 2.4 0 0 1 20 8v12a2 2 0 0 1-2 2z" /><path d="M14 2v5a1 1 0 0 0 1 1h5" /><path d="M10 9H8" /><path d="M16 13H8" /><path d="M16 17H8" /></symbol>
<symbol id="i-porcentagem" viewBox="0 0 24 24" fill="none" stroke="currentColor" stroke-width="2" stroke-linecap="round" stroke-linejoin="round"><line x1="19" x2="5" y1="5" y2="19" /><circle cx="6.5" cy="6.5" r="2.5" /><circle cx="17.5" cy="17.5" r="2.5" /></symbol>
<symbol id="i-recibo" viewBox="0 0 24 24" fill="none" stroke="currentColor" stroke-width="2" stroke-linecap="round" stroke-linejoin="round"><path d="M12 17V7" /><path d="M16 8h-6a2 2 0 0 0 0 4h4a2 2 0 0 1 0 4H8" /><path d="M4 3a1 1 0 0 1 1-1 1.3 1.3 0 0 1 .7.2l.933.6a1.3 1.3 0 0 0 1.4 0l.934-.6a1.3 1.3 0 0 1 1.4 0l.933.6a1.3 1.3 0 0 0 1.4 0l.933-.6a1.3 1.3 0 0 1 1.4 0l.934.6a1.3 1.3 0 0 0 1.4 0l.933-.6A1.3 1.3 0 0 1 19 2a1 1 0 0 1 1 1v18a1 1 0 0 1-1 1 1.3 1.3 0 0 1-.7-.2l-.933-.6a1.3 1.3 0 0 0-1.4 0l-.934.6a1.3 1.3 0 0 1-1.4 0l-.933-.6a1.3 1.3 0 0 0-1.4 0l-.933.6a1.3 1.3 0 0 1-1.4 0l-.934-.6a1.3 1.3 0 0 0-1.4 0l-.933.6a1.3 1.3 0 0 1-.7.2 1 1 0 0 1-1-1z" /></symbol>
<symbol id="i-relogio" viewBox="0 0 24 24" fill="none" stroke="currentColor" stroke-width="2" stroke-linecap="round" stroke-linejoin="round"><circle cx="12" cy="12" r="10" /><path d="M12 6v6l4 2" /></symbol>
<symbol id="i-seguranca" viewBox="0 0 24 24" fill="none" stroke="currentColor" stroke-width="2" stroke-linecap="round" stroke-linejoin="round"><path d="M20 13c0 5-3.5 7.5-7.66 8.95a1 1 0 0 1-.67-.01C7.5 20.5 4 18 4 13V6a1 1 0 0 1 1-1c2 0 4.5-1.2 6.24-2.72a1.17 1.17 0 0 1 1.52 0C14.51 3.81 17 5 19 5a1 1 0 0 1 1 1z" /><path d="m9 12 2 2 4-4" /></symbol>
<symbol id="i-seta-baixo" viewBox="0 0 24 24" fill="none" stroke="currentColor" stroke-width="2" stroke-linecap="round" stroke-linejoin="round"><path d="m6 9 6 6 6-6" /></symbol>
<symbol id="i-seta-direita" viewBox="0 0 24 24" fill="none" stroke="currentColor" stroke-width="2" stroke-linecap="round" stroke-linejoin="round"><path d="M5 12h14" /><path d="m12 5 7 7-7 7" /></symbol>
<symbol id="i-sino" viewBox="0 0 24 24" fill="none" stroke="currentColor" stroke-width="2" stroke-linecap="round" stroke-linejoin="round"><path d="M10.268 21a2 2 0 0 0 3.464 0" /><path d="M3.262 15.326A1 1 0 0 0 4 17h16a1 1 0 0 0 .74-1.673C19.41 13.956 18 12.499 18 8A6 6 0 0 0 6 8c0 4.499-1.411 5.956-2.738 7.326" /></symbol>
<symbol id="i-telefone" viewBox="0 0 24 24" fill="none" stroke="currentColor" stroke-width="2" stroke-linecap="round" stroke-linejoin="round"><path d="M13.832 16.568a1 1 0 0 0 1.213-.303l.355-.465A2 2 0 0 1 17 15h3a2 2 0 0 1 2 2v3a2 2 0 0 1-2 2A18 18 0 0 1 2 4a2 2 0 0 1 2-2h3a2 2 0 0 1 2 2v3a2 2 0 0 1-.8 1.6l-.468.351a1 1 0 0 0-.292 1.233 14 14 0 0 0 6.392 6.384" /></symbol>
<symbol id="i-usuario" viewBox="0 0 24 24" fill="none" stroke="currentColor" stroke-width="2" stroke-linecap="round" stroke-linejoin="round"><path d="M19 21v-2a4 4 0 0 0-4-4H9a4 4 0 0 0-4 4v2" /><circle cx="12" cy="7" r="4" /></symbol>
<symbol id="i-usuarios" viewBox="0 0 24 24" fill="none" stroke="currentColor" stroke-width="2" stroke-linecap="round" stroke-linejoin="round"><path d="M16 21v-2a4 4 0 0 0-4-4H6a4 4 0 0 0-4 4v2" /><path d="M16 3.128a4 4 0 0 1 0 7.744" /><path d="M22 21v-2a4 4 0 0 0-3-3.87" /><circle cx="9" cy="7" r="4" /></symbol>
<symbol id="i-x" viewBox="0 0 24 24" fill="none" stroke="currentColor" stroke-width="2" stroke-linecap="round" stroke-linejoin="round"><circle cx="12" cy="12" r="10" /><path d="m15 9-6 6" /><path d="m9 9 6 6" /></symbol>
</svg>
